<svg width="576" height="192" viewBox="0 0 576 192" xmlns="http://www.w3.org/2000/svg">
  <defs>
    <style>
      .outline { stroke: #6b4a12; stroke-width: 3; stroke-linejoin: round; stroke-linecap: round; }
      .body { fill: #ffd84d; }
      .body2 { fill: #ffe27a; }
      .wing { fill: #f4b400; }
      .beak { fill: #f7931e; }
      .comb { fill: #e84a3a; }
      .leg { stroke: #c7791a; stroke-width: 4; stroke-linecap: round; }
      .foot { stroke: #f7931e; stroke-width: 4; stroke-linecap: round; }
      .eyeWhite { fill: white; stroke: #6b4a12; stroke-width: 2; }
      .eyeBlack { fill: #1d1d1d; }
      .shadow { fill: rgba(0,0,0,0.10); }
    </style>

    <g id="chicken-base">
      <ellipse class="shadow" cx="96" cy="168" rx="40" ry="8"></ellipse>
      <path class="body outline" d="M38 96 C22 87, 21 67, 42 60 C34 75, 47 81, 60 84 Z"></path>
      <ellipse class="body outline" cx="92" cy="100" rx="54" ry="42"></ellipse>
      <ellipse class="body2" cx="103" cy="110" rx="30" ry="24"></ellipse>
      <ellipse class="wing outline" cx="93" cy="108" rx="21" ry="15"></ellipse>
      <circle class="body2 outline" cx="138" cy="72" r="28"></circle>
      <path class="comb outline" d="M120 49 C118 38,126 33,133 39 C134 28,144 25,149 35 C154 26,164 31,163 42 C159 49,147 50,136 50 Z"></path>
      <path class="beak outline" d="M161 74 L183 81 L162 89 Q167 81 161 74 Z"></path>
      <ellipse class="eyeWhite" cx="145" cy="68" rx="7" ry="8"></ellipse>
      <circle class="eyeBlack" cx="147" cy="70" r="3.5"></circle>
      <circle fill="white" cx="148.5" cy="68.5" r="1.2"></circle>
    </g>

    <g id="legs-1">
      <line class="leg" x1="84" y1="138" x2="74" y2="160"></line>
      <line class="leg" x1="108" y1="138" x2="120" y2="161"></line>
      <line class="foot" x1="74" y1="160" x2="63" y2="166"></line>
      <line class="foot" x1="74" y1="160" x2="74" y2="168"></line>
      <line class="foot" x1="74" y1="160" x2="84" y2="166"></line>
      <line class="foot" x1="120" y1="161" x2="109" y2="167"></line>
      <line class="foot" x1="120" y1="161" x2="120" y2="169"></line>
      <line class="foot" x1="120" y1="161" x2="130" y2="167"></line>
    </g>

    <g id="legs-2">
      <line class="leg" x1="84" y1="138" x2="84" y2="161"></line>
      <line class="leg" x1="108" y1="138" x2="108" y2="161"></line>
      <line class="foot" x1="84" y1="161" x2="73" y2="167"></line>
      <line class="foot" x1="84" y1="161" x2="84" y2="169"></line>
      <line class="foot" x1="84" y1="161" x2="94" y2="167"></line>
      <line class="foot" x1="108" y1="161" x2="97" y2="167"></line>
      <line class="foot" x1="108" y1="161" x2="108" y2="169"></line>
      <line class="foot" x1="108" y1="161" x2="118" y2="167"></line>
    </g>

    <g id="legs-3">
      <line class="leg" x1="84" y1="138" x2="97" y2="161"></line>
      <line class="leg" x1="108" y1="138" x2="98" y2="160"></line>
      <line class="foot" x1="97" y1="161" x2="86" y2="167"></line>
      <line class="foot" x1="97" y1="161" x2="97" y2="169"></line>
      <line class="foot" x1="97" y1="161" x2="107" y2="167"></line>
      <line class="foot" x1="98" y1="160" x2="87" y2="166"></line>
      <line class="foot" x1="98" y1="160" x2="98" y2="168"></line>
      <line class="foot" x1="98" y1="160" x2="108" y2="166"></line>
    </g>
  </defs>

  <g transform="translate(0,0)">
    <use href="#chicken-base"></use>
    <use href="#legs-1"></use>
  </g>

  <g transform="translate(192,0)">
    <use href="#chicken-base"></use>
    <use href="#legs-2"></use>
  </g>

  <g transform="translate(384,0)">
    <use href="#chicken-base"></use>
    <use href="#legs-3"></use>
  </g>
</svg>
