<svg xmlns="http://www.w3.org/2000/svg" viewBox="0 0 512 512">

  <!-- Torn vänster -->
  <rect x="60" y="180" width="80" height="200" fill="#d9a441"></rect>
  <rect x="60" y="150" width="80" height="40" fill="#c48b2f"></rect>
  <rect x="60" y="150" width="15" height="25" fill="#8b5a1e"></rect>
  <rect x="85" y="150" width="15" height="25" fill="#8b5a1e"></rect>
  <rect x="110" y="150" width="15" height="25" fill="#8b5a1e"></rect>

  <!-- Torn höger -->
  <rect x="372" y="180" width="80" height="200" fill="#d9a441"></rect>
  <rect x="372" y="150" width="80" height="40" fill="#c48b2f"></rect>
  <rect x="372" y="150" width="15" height="25" fill="#8b5a1e"></rect>
  <rect x="397" y="150" width="15" height="25" fill="#8b5a1e"></rect>
  <rect x="422" y="150" width="15" height="25" fill="#8b5a1e"></rect>

  <!-- Mittdel -->
  <rect x="140" y="200" width="232" height="180" fill="#f4c542"></rect>

  <!-- Port -->
  <rect x="230" y="280" width="60" height="100" fill="#8b5a1e"></rect>
  <rect x="250" y="300" width="10" height="80" fill="#5e3b12"></rect>

  <!-- Fönster -->
  <circle cx="200" cy="260" r="10" fill="#8b5a1e"></circle>
  <circle cx="312" cy="260" r="10" fill="#8b5a1e"></circle>

  <!-- Kycklinghuvud -->
  <circle cx="256" cy="140" r="50" fill="#ffd84d"></circle>
  <circle cx="240" cy="130" r="5" fill="#000"></circle>
  <circle cx="272" cy="130" r="5" fill="#000"></circle>

  <!-- Näbb -->
  <polygon points="256,140 280,155 256,165" fill="#ff8c00"></polygon>

  <!-- Kam -->
  <circle cx="240" cy="90" r="10" fill="#d32f2f"></circle>
  <circle cx="256" cy="80" r="12" fill="#d32f2f"></circle>
  <circle cx="272" cy="90" r="10" fill="#d32f2f"></circle>

</svg>